# xmcd
#
# Track frame offsets:
#	150
#	10790
#	17320
#	25515
#	37200
#	49487
#	59992
#	67020
#	78202
#	86552
#	98707
#	109377
#	118420
#	130870
#	138865
#	150300
#	159780
#	171167
#	180452
#	192537
#	202805
#	212435
#	220985
#	228890
#	239575
#
# Disc length: 3301 seconds
#
# Revision: 4
# Processed by: cddbd v1.5.2PL0 Copyright (c) Steve Scherf et al.
# Submitted via: audiograbber 1.83.01
#
DISCID=530ce319
DTITLE=Jim Reeves - Gentleman Jim
DYEAR=1996
DGENRE=Country
TTITLE0=He'll Have To Go (Live)
TTITLE1=Have I Told You Lately That I Love You? (Live)
TTITLE2=I Know One (Live)
TTITLE3=Am I Losing You? (Live)
TTITLE4=Your Old Love Letters (Live)
TTITLE5=Anna Marie (Live)
TTITLE6=I'm Beginning To Forget You (Live)
TTITLE7=I Love You More (Live)
TTITLE8=Waiting For A Train (Live)
TTITLE9=Mexican Joe (Live)
TTITLE10=I Missed Me (Live)
TTITLE11=According To My Heart (Live)
TTITLE12=Four Walls (Live)
TTITLE13=Bimbo (Live)
TTITLE14=When God Dips His Love In My Heart (Live)
TTITLE15=Billy Bayou (Live)
TTITLE16=If Heartaches Are The Fashion (Live)
TTITLE17=I'd Like To Be (Live)
TTITLE18=Peace In The Valley (Live)
TTITLE19=Dear Hearts And Gentle People (Live)
TTITLE20=I'm Gettin' Better (Live)
TTITLE21=Yonder Comes A Sucker (Live)
TTITLE22=Blue Boy (Live)
TTITLE23=Just Call Me Lonesome (Live)
TTITLE24=In A Mansion Stands My Love (Live)
EXTD=
EXTT0=
EXTT1=
EXTT2=
EXTT3=
EXTT4=
EXTT5=
EXTT6=
EXTT7=
EXTT8=
EXTT9=
EXTT10=
EXTT11=
EXTT12=
EXTT13=
EXTT14=
EXTT15=
EXTT16=
EXTT17=
EXTT18=
EXTT19=
EXTT20=
EXTT21=
EXTT22=
EXTT23=
EXTT24=
PLAYORDER=
